REM DIRINDEX 1\6,1\2\7,1\2\8,1\2\9,1\3\10,1\3\11,1\4\12,1\4\13,1\4\14,1\5\15,1\5\16,1\5\17
REM DIRNAME folder01,folder02,folder03,folder04,folder05,folder06,folder07,folder08,folder09,folder10,folder11,folder12,folder13,folder14,folder15,folder16,folder17
TITLE ""
FILE "3Q_t2_0332-0347.mp3" MP3
  TRACK 01 AUDIO
    TITLE "7:cjc041_4410"
    INDEX 01 00:00:00
  TRACK 02 AUDIO
    TITLE "0:"
    INDEX 01 00:01:05
  TRACK 03 AUDIO
    TITLE "8:cjc041_4411"
    INDEX 01 00:01:56
  TRACK 04 AUDIO
    TITLE "0:"
    INDEX 01 00:04:68
  TRACK 05 AUDIO
    TITLE "9:cjc041_4412"
    INDEX 01 00:05:46
  TRACK 06 AUDIO
    TITLE "0:"
    INDEX 01 00:06:59
  TRACK 07 AUDIO
    TITLE "7:cjc041_4413"
    INDEX 01 00:08:34
  TRACK 08 AUDIO
    TITLE "0:"
    INDEX 01 00:09:59
  TRACK 09 AUDIO
    TITLE "8:cjc041_4414"
    INDEX 01 00:10:37
  TRACK 10 AUDIO
    TITLE "0:"
    INDEX 01 00:13:37
  TRACK 11 AUDIO
    TITLE "9:cjc041_4415"
    INDEX 01 00:14:15
  TRACK 12 AUDIO
    TITLE "0:"
    INDEX 01 00:15:42
  TRACK 13 AUDIO
    TITLE "7:cjc041_4416"
    INDEX 01 00:17:21
  TRACK 14 AUDIO
    TITLE "0:"
    INDEX 01 00:18:29
  TRACK 15 AUDIO
    TITLE "8:cjc041_4417"
    INDEX 01 00:19:07
  TRACK 16 AUDIO
    TITLE "0:"
    INDEX 01 00:21:41
  TRACK 17 AUDIO
    TITLE "9:cjc041_4418"
    INDEX 01 00:22:17
  TRACK 18 AUDIO
    TITLE "0:"
    INDEX 01 00:23:26
  TRACK 19 AUDIO
    TITLE "7:cjc041_4419"
    INDEX 01 00:25:07
  TRACK 20 AUDIO
    TITLE "0:"
    INDEX 01 00:26:22
  TRACK 21 AUDIO
    TITLE "8:cjc041_4420"
    INDEX 01 00:27:02
  TRACK 22 AUDIO
    TITLE "0:"
    INDEX 01 00:28:51
  TRACK 23 AUDIO
    TITLE "9:cjc041_4421"
    INDEX 01 00:29:29
  TRACK 24 AUDIO
    TITLE "0:"
    INDEX 01 00:30:46
  TRACK 25 AUDIO
    TITLE "7:cjc041_4422"
    INDEX 01 00:32:27
  TRACK 26 AUDIO
    TITLE "0:"
    INDEX 01 00:33:36
  TRACK 27 AUDIO
    TITLE "8:cjc041_4423"
    INDEX 01 00:34:12
  TRACK 28 AUDIO
    TITLE "0:"
    INDEX 01 00:35:51
  TRACK 29 AUDIO
    TITLE "9:cjc041_4424"
    INDEX 01 00:36:33
  TRACK 30 AUDIO
    TITLE "0:"
    INDEX 01 00:37:44
  TRACK 31 AUDIO
    TITLE "7:cjc041_4425"
    INDEX 01 00:39:23
  TRACK 32 AUDIO
    TITLE "0:"
    INDEX 01 00:40:38
  TRACK 33 AUDIO
    TITLE "8:cjc041_4426"
    INDEX 01 00:41:16
  TRACK 34 AUDIO
    TITLE "0:"
    INDEX 01 00:42:61
  TRACK 35 AUDIO
    TITLE "9:cjc041_4427"
    INDEX 01 00:43:40
  TRACK 36 AUDIO
    TITLE "0:"
    INDEX 01 00:44:60
  TRACK 37 AUDIO
    TITLE "7:cjc041_4428"
    INDEX 01 00:46:39
  TRACK 38 AUDIO
    TITLE "0:"
    INDEX 01 00:47:50
  TRACK 39 AUDIO
    TITLE "8:cjc041_4429"
    INDEX 01 00:48:24
  TRACK 40 AUDIO
    TITLE "0:"
    INDEX 01 00:49:41
  TRACK 41 AUDIO
    TITLE "9:cjc041_4430"
    INDEX 01 00:50:21
  TRACK 42 AUDIO
    TITLE "0:"
    INDEX 01 00:51:30
  TRACK 43 AUDIO
    TITLE "7:cjc041_4431"
    INDEX 01 00:53:11
  TRACK 44 AUDIO
    TITLE "0:"
    INDEX 01 00:54:34
  TRACK 45 AUDIO
    TITLE "8:cjc041_4432"
    INDEX 01 00:55:10
  TRACK 46 AUDIO
    TITLE "0:"
    INDEX 01 00:57:58
  TRACK 47 AUDIO
    TITLE "9:cjc041_4433"
    INDEX 01 00:58:34
  TRACK 48 AUDIO
    TITLE "0:"
    INDEX 01 00:59:63
  TRACK 49 AUDIO
    TITLE "7:cjc041_4434"
    INDEX 01 01:01:40
  TRACK 50 AUDIO
    TITLE "0:"
    INDEX 01 01:02:57
  TRACK 51 AUDIO
    TITLE "8:cjc041_4435"
    INDEX 01 01:03:33
  TRACK 52 AUDIO
    TITLE "0:"
    INDEX 01 01:05:38
  TRACK 53 AUDIO
    TITLE "9:cjc041_4436"
    INDEX 01 01:06:16
  TRACK 54 AUDIO
    TITLE "0:"
    INDEX 01 01:07:31
  TRACK 55 AUDIO
    TITLE "7:cjc041_4437"
    INDEX 01 01:09:12
  TRACK 56 AUDIO
    TITLE "0:"
    INDEX 01 01:10:43
  TRACK 57 AUDIO
    TITLE "8:cjc041_4438"
    INDEX 01 01:11:19
  TRACK 58 AUDIO
    TITLE "0:"
    INDEX 01 01:12:60
  TRACK 59 AUDIO
    TITLE "9:cjc041_4439"
    INDEX 01 01:13:45
  TRACK 60 AUDIO
    TITLE "0:"
    INDEX 01 01:15:01
  TRACK 61 AUDIO
    TITLE "7:cjc041_4440"
    INDEX 01 01:16:58
  TRACK 62 AUDIO
    TITLE "0:"
    INDEX 01 01:18:21
  TRACK 63 AUDIO
    TITLE "8:cjc041_4441"
    INDEX 01 01:18:70
  TRACK 64 AUDIO
    TITLE "0:"
    INDEX 01 01:20:42
  TRACK 65 AUDIO
    TITLE "9:cjc041_4442"
    INDEX 01 01:21:21
  TRACK 66 AUDIO
    TITLE "0:"
    INDEX 01 01:22:60
  TRACK 67 AUDIO
    TITLE "7:cjc041_4443"
    INDEX 01 01:24:36
  TRACK 68 AUDIO
    TITLE "0:"
    INDEX 01 01:25:43
  TRACK 69 AUDIO
    TITLE "8:cjc041_4444"
    INDEX 01 01:26:17
  TRACK 70 AUDIO
    TITLE "0:"
    INDEX 01 01:30:05
  TRACK 71 AUDIO
    TITLE "9:cjc041_4445"
    INDEX 01 01:30:54
  TRACK 72 AUDIO
    TITLE "0:"
    INDEX 01 01:31:63
  TRACK 73 AUDIO
    TITLE "7:cjc041_4446"
    INDEX 01 01:33:44
  TRACK 74 AUDIO
    TITLE "0:"
    INDEX 01 01:34:57
  TRACK 75 AUDIO
    TITLE "8:cjc041_4447"
    INDEX 01 01:35:33
  TRACK 76 AUDIO
    TITLE "0:"
    INDEX 01 01:37:07
  TRACK 77 AUDIO
    TITLE "9:cjc041_4448"
    INDEX 01 01:37:64
  TRACK 78 AUDIO
    TITLE "0:"
    INDEX 01 01:39:02
  TRACK 79 AUDIO
    TITLE "7:cjc041_4449"
    INDEX 01 01:40:56
  TRACK 80 AUDIO
    TITLE "0:"
    INDEX 01 01:42:10
  TRACK 81 AUDIO
    TITLE "8:cjc041_4450"
    INDEX 01 01:42:63
  TRACK 82 AUDIO
    TITLE "0:"
    INDEX 01 01:44:36
  TRACK 83 AUDIO
    TITLE "9:cjc041_4451"
    INDEX 01 01:45:06
  TRACK 84 AUDIO
    TITLE "0:"
    INDEX 01 01:46:35
  TRACK 85 AUDIO
    TITLE "7:cjc041_4452"
    INDEX 01 01:48:14
  TRACK 86 AUDIO
    TITLE "0:"
    INDEX 01 01:49:43
  TRACK 87 AUDIO
    TITLE "8:cjc041_4453"
    INDEX 01 01:50:15
  TRACK 88 AUDIO
    TITLE "0:"
    INDEX 01 01:51:62
  TRACK 89 AUDIO
    TITLE "9:cjc041_4454"
    INDEX 01 01:52:38
  TRACK 90 AUDIO
    TITLE "0:"
    INDEX 01 01:53:67
  TRACK 91 AUDIO
    TITLE "7:cjc041_4455"
    INDEX 01 01:55:42
  TRACK 92 AUDIO
    TITLE "0:"
    INDEX 01 01:56:43
  TRACK 93 AUDIO
    TITLE "8:cjc041_4456"
    INDEX 01 01:57:29
  TRACK 94 AUDIO
    TITLE "0:"
    INDEX 01 01:58:17
  TRACK 95 AUDIO
    TITLE "9:cjc041_4457"
    INDEX 01 01:59:03
  TRACK 96 AUDIO
    TITLE "0:"
    INDEX 01 02:00:06
